<svg version="1.1" id="Layer_1" xmlns="http://www.w3.org/2000/svg" xmlns:xlink="http://www.w3.org/1999/xlink" x="0px" y="0px" width="100%" height="100%" viewBox="0 0 1020 1020" preserveAspectRatio="xMidYMid meet">
<path fill="none" stroke="#666666" stroke-width="34" stroke-miterlimit="10" d="M187,102c0,46.941-38.059,85-85,85
	s-85-38.059-85-85c0-46.949,38.059-85,85-85S187,55.051,187,102z"/>
<path fill="none" stroke="#666666" stroke-width="34" stroke-miterlimit="10" d="M425,816c0,46.949-38.051,85-85,85
	c-46.941,0-85-38.051-85-85s38.059-85,85-85C386.949,731,425,769.051,425,816z"/>
<path fill="none" stroke="#666666" stroke-width="34" stroke-miterlimit="10" d="M969,153c0,46.949-38.051,85-85,85
	s-85-38.051-85-85s38.051-85,85-85S969,106.051,969,153z"/>
<path fill="none" stroke="#666666" stroke-width="34" stroke-miterlimit="10" d="M850,493c0,46.949-38.051,85-85,85
	s-85-38.051-85-85s38.051-85,85-85S850,446.051,850,493z"/>
<path fill="none" stroke="#666666" stroke-width="34" stroke-miterlimit="10" d="M1003,918c0,46.949-38.051,85-85,85
	s-85-38.051-85-85s38.051-85,85-85S1003,871.051,1003,918z"/>
<line fill="none" stroke="#666666" stroke-width="34" stroke-miterlimit="10" x1="313.114" y1="735.35" x2="128.886" y2="182.659"/>
<line fill="none" stroke="#666666" stroke-width="34" stroke-miterlimit="10" x1="162.098" y1="162.098" x2="857.902" y2="857.902"/>
<line fill="none" stroke="#666666" stroke-width="34" stroke-miterlimit="10" x1="889.196" y1="838.014" x2="793.787" y2="572.97"/>
<line fill="none" stroke="#666666" stroke-width="34" stroke-miterlimit="10" x1="855.362" y1="233.044" x2="791.28" y2="412.15"/>
</svg>