<svg version="1.1" id="race_track" xmlns="http://www.w3.org/2000/svg" xmlns:xlink="http://www.w3.org/1999/xlink" x="0px" y="0px" width="100%" height="100%" viewBox="0 0 123.455 50.119" preserveAspectRatio="xMidYMid meet"><g><g><path fill-rule="evenodd" clip-rule="evenodd" fill="none" stroke="#000000" stroke-width="2" stroke-linecap="round" stroke-linejoin="round" stroke-miterlimit="10" d="M47.256,1.322c-2.827,1.043-3.549,3.131-3.427,6.003c0.195,4.617-0.104,9.257,0.122,13.871c0.104,2.116-0.596,4.028-0.943,5.982 c-0.506,2.855-2.578,3.416-5.496,1.886c-8.519-4.467-17.042-8.928-25.495-13.518c-3.794-2.061-4.148-2.182-6.361,1.172 c-1.166,1.766-2.144,3.681-3.003,5.618c-1.29,2.908-1.32,5.468,1.793,7.572c1.478,0.998,2.851,2.227,3.609,4.354 c0.99,2.779,3.405,2.915,6.198,1.188c1.003-0.62,1.932-1.595,3.014-1.811c3.48-0.695,5.663-2.551,5.947-6.603 c4.002,1.847,7.469,3.423,10.916,5.042c12.283,5.774,24.596,11.396,37.406,16.028c4.985,1.804,8.321,0.439,12.084-1.442 c10.71-5.355,19.948-12.953,29.635-19.858c2.462-1.754,4.909-3.578,7.1-5.649c2.377-2.246,2.138-3.179-0.711-5.584 c-1.415,0.639-2.708,1.418-3.766,2.611c-1.396,1.574-2.965,2.336-5.256,1.575c-2.587-0.859-2.664-3.052-2.9-4.947 c-0.32-2.585-0.056-5.24-0.085-7.866c-0.049-4.236-1.448-5.624-5.62-5.625c-18.128-0.001-36.255,0-54.383,0"/></g></g></svg>